<?xml version="1.0" encoding="UTF-8" standalone="no"?>
<!DOCTYPE svg PUBLIC "-//W3C//DTD SVG 1.1//EN" "http://www.w3.org/Graphics/SVG/1.1/DTD/svg11.dtd">
<svg width="100%" height="100%" viewBox="0 0 657 179" version="1.1" xmlns="http://www.w3.org/2000/svg" xmlns:xlink="http://www.w3.org/1999/xlink" xml:space="preserve" xmlns:serif="http://www.serif.com/" style="fill-rule:evenodd;clip-rule:evenodd;stroke-linejoin:round;stroke-miterlimit:2;">
    <g transform="matrix(1,0,0,1,-34.004035,-35)">
        <g>
            <path d="M34.008,35L62.015,35L62.015,214L34.004,214L34.008,35Z" style="fill:white;"/>
            <path d="M222.027,83L222.027,110.104L130.105,110.104C120.397,115.188 119.961,129.453 130.991,133.975L200.005,133.975C240.303,138.758 239.302,212.166 197.994,214L95.067,214L95.067,186.951L190.916,186.951C204.175,182.027 204.625,164.679 191.013,160.953L124.046,160.953C85.269,157.23 82.051,90.729 122.014,83L222.027,83Z" style="fill:white;"/>
            <path d="M259.948,35L289.097,35L289.097,158.879L365.135,82.841L405.435,82.841L342.927,145.349L411.434,213.856L371.179,213.856L322.617,165.294L274.023,213.889L260.393,213.889L259.948,35Z" style="fill:white;"/>
            <path d="M538.163,83L526.979,110.097L470.251,110.097C465.115,111.776 462.292,114.922 461.229,119.183L461.229,214L432.464,214L432.464,114.22C433.681,95.5 448.111,83.831 466.416,83L538.163,83Z" style="fill:white;"/>
            <path d="M571.164,83L560.277,109.892L651.359,109.892C656.23,110.864 661.311,115.326 662.126,120.755L662.126,186.856L581.446,186.856C567.067,183.688 567.448,164.064 580.63,161.203L645.193,161.203L645.193,134.5L572.632,134.5C555.551,137.517 546.153,146.965 543.474,162.035L543.474,185.74C546.651,202.481 557.571,211.125 574.009,214L691,214L691,118.755C690.785,100.365 676.876,83.595 658.435,83L571.164,83Z" style="fill:white;"/>
        </g>
    </g>
</svg>
